<svg width="29" height="33" viewBox="0 0 29 33" fill="none" xmlns="http://www.w3.org/2000/svg">
<path d="M14.4375 33.0001C15.5315 33.0001 16.5807 32.5655 17.3543 31.7919C18.1279 31.0183 18.5625 29.9691 18.5625 28.8751H10.3125C10.3125 29.9691 10.7471 31.0183 11.5207 31.7919C12.2943 32.5655 13.3435 33.0001 14.4375 33.0001ZM14.4375 3.95597L12.7937 4.28803C10.9291 4.66795 9.25306 5.68043 8.04922 7.15413C6.84538 8.62782 6.1877 10.4722 6.1875 12.3751C6.1875 13.6703 5.91112 16.9064 5.24081 20.093C4.91081 21.6749 4.46531 23.3228 3.87337 24.7501H25.0016C24.4097 23.3228 23.9662 21.677 23.6342 20.093C22.9639 16.9064 22.6875 13.6703 22.6875 12.3751C22.6868 10.4726 22.0289 8.62866 20.8251 7.15539C19.6213 5.68212 17.9455 4.66994 16.0813 4.2901L14.4375 3.95597ZM27.2663 24.7501C27.7262 25.672 28.2583 26.4022 28.875 26.8126H0C0.616687 26.4022 1.14881 25.672 1.60875 24.7501C3.465 21.0376 4.125 14.1901 4.125 12.3751C4.125 7.38385 7.6725 3.2176 12.3853 2.26678C12.3565 1.98 12.3882 1.69037 12.4782 1.41657C12.5682 1.14276 12.7146 0.890868 12.908 0.677128C13.1014 0.463388 13.3374 0.292547 13.6008 0.175624C13.8643 0.0587006 14.1493 -0.00170898 14.4375 -0.00170898C14.7257 -0.00170898 15.0107 0.0587006 15.2742 0.175624C15.5376 0.292547 15.7736 0.463388 15.967 0.677128C16.1604 0.890868 16.3068 1.14276 16.3968 1.41657C16.4868 1.69037 16.5185 1.98 16.4897 2.26678C18.8209 2.74095 20.9166 4.00621 22.4219 5.84832C23.9273 7.69042 24.7497 9.99615 24.75 12.3751C24.75 14.1901 25.41 21.0376 27.2663 24.7501Z" fill="#0E2057"/>
</svg>
